<?xml version="1.0" encoding="UTF-8" standalone="no"?>
<!DOCTYPE svg PUBLIC "-//W3C//DTD SVG 1.1//EN"
 "http://www.w3.org/Graphics/SVG/1.1/DTD/svg11.dtd">
<!-- Generated by graphviz version 2.40.1 (20161225.0304)
 -->
<!-- Title: dependencies Pages: 1 -->
<svg width="1312pt" height="284pt"
 viewBox="0.00 0.00 1312.00 284.00" xmlns="http://www.w3.org/2000/svg" xmlns:xlink="http://www.w3.org/1999/xlink">
<g id="graph0" class="graph" transform="scale(1 1) rotate(0) translate(4 280)">
<title>dependencies</title>
<polygon fill="#ffffff" stroke="transparent" points="-4,4 -4,-280 1308,-280 1308,4 -4,4"/>
<text text-anchor="start" x="631.0091" y="-42.4" font-family="sans-serif" font-weight="bold" font-size="14.00" fill="#000000">Legend</text>
<polygon fill="#ffffb3" stroke="transparent" points="418,-10 418,-30 438,-30 438,-10 418,-10"/>
<text text-anchor="start" x="441.629" y="-15.4" font-family="sans-serif" font-size="14.00" fill="#000000"> &#160;Declarations</text>
<polygon fill="#8dd3c7" stroke="transparent" points="531,-10 531,-30 551,-30 551,-10 531,-10"/>
<text text-anchor="start" x="554.7251" y="-15.4" font-family="sans-serif" font-size="14.00" fill="#000000"> &#160;Module</text>
<polygon fill="#80b1d3" stroke="transparent" points="617,-10 617,-30 637,-30 637,-10 617,-10"/>
<text text-anchor="start" x="640.7812" y="-15.4" font-family="sans-serif" font-size="14.00" fill="#000000"> &#160;Bootstrap</text>
<polygon fill="#fdb462" stroke="transparent" points="714,-10 714,-30 734,-30 734,-10 714,-10"/>
<text text-anchor="start" x="737.6732" y="-15.4" font-family="sans-serif" font-size="14.00" fill="#000000"> &#160;Providers</text>
<polygon fill="#fb8072" stroke="transparent" points="810,-10 810,-30 830,-30 830,-10 810,-10"/>
<text text-anchor="start" x="833.7258" y="-15.4" font-family="sans-serif" font-size="14.00" fill="#000000"> &#160;Exports</text>
<g id="clust1" class="cluster">
<title>cluster_AppModule</title>
<polygon fill="none" stroke="#000000" stroke-dasharray="1,5" points="8,-70 8,-268 1296,-268 1296,-70 8,-70"/>
</g>
<g id="clust2" class="cluster">
<title>cluster_AppModule_declarations</title>
<polygon fill="none" stroke="#000000" points="678,-78 678,-130 1288,-130 1288,-78 678,-78"/>
</g>
<g id="clust7" class="cluster">
<title>cluster_AppModule_imports</title>
<polygon fill="none" stroke="#000000" points="212,-78 212,-130 670,-130 670,-78 212,-78"/>
</g>
<g id="clust9" class="cluster">
<title>cluster_AppModule_bootstrap</title>
<polygon fill="none" stroke="#000000" points="620,-208 620,-260 744,-260 744,-208 620,-208"/>
</g>
<g id="clust10" class="cluster">
<title>cluster_AppModule_providers</title>
<polygon fill="none" stroke="#000000" points="16,-78 16,-130 204,-130 204,-78 16,-78"/>
</g>
<!-- AppComponent -->
<g id="node1" class="node">
<title>AppComponent</title>
<polygon fill="#ffffb3" stroke="#000000" points="1279.9399,-122 1174.0601,-122 1174.0601,-86 1279.9399,-86 1279.9399,-122"/>
<text text-anchor="middle" x="1227" y="-99.8" font-family="Times,serif" font-size="14.00" fill="#000000">AppComponent</text>
</g>
<!-- AppModule -->
<g id="node5" class="node">
<title>AppModule</title>
<polygon fill="#8dd3c7" stroke="#000000" points="723.6571,-187 720.6571,-191 699.6571,-191 696.6571,-187 640.3429,-187 640.3429,-151 723.6571,-151 723.6571,-187"/>
<text text-anchor="middle" x="682" y="-164.8" font-family="Times,serif" font-size="14.00" fill="#000000">AppModule</text>
</g>
<!-- AppComponent&#45;&gt;AppModule -->
<g id="edge1" class="edge">
<title>AppComponent&#45;&gt;AppModule</title>
<path fill="none" stroke="#000000" d="M1227,-122.2921C1227,-144.2057 1227,-178 1227,-178 1227,-178 733.8603,-178 733.8603,-178"/>
<polygon fill="#000000" stroke="#000000" points="733.8603,-174.5001 723.8603,-178 733.8603,-181.5001 733.8603,-174.5001"/>
</g>
<!-- LoginComponent -->
<g id="node2" class="node">
<title>LoginComponent</title>
<polygon fill="#ffffb3" stroke="#000000" points="1156.2758,-122 1041.7242,-122 1041.7242,-86 1156.2758,-86 1156.2758,-122"/>
<text text-anchor="middle" x="1099" y="-99.8" font-family="Times,serif" font-size="14.00" fill="#000000">LoginComponent</text>
</g>
<!-- LoginComponent&#45;&gt;AppModule -->
<g id="edge2" class="edge">
<title>LoginComponent&#45;&gt;AppModule</title>
<path fill="none" stroke="#000000" d="M1099,-122.1061C1099,-141.3391 1099,-169 1099,-169 1099,-169 733.8928,-169 733.8928,-169"/>
<polygon fill="#000000" stroke="#000000" points="733.8929,-165.5001 723.8928,-169 733.8928,-172.5001 733.8929,-165.5001"/>
</g>
<!-- ProcesOpstartComponent -->
<g id="node3" class="node">
<title>ProcesOpstartComponent</title>
<polygon fill="#ffffb3" stroke="#000000" points="1023.8571,-122 864.1429,-122 864.1429,-86 1023.8571,-86 1023.8571,-122"/>
<text text-anchor="middle" x="944" y="-99.8" font-family="Times,serif" font-size="14.00" fill="#000000">ProcesOpstartComponent</text>
</g>
<!-- ProcesOpstartComponent&#45;&gt;AppModule -->
<g id="edge3" class="edge">
<title>ProcesOpstartComponent&#45;&gt;AppModule</title>
<path fill="none" stroke="#000000" d="M944,-122.027C944,-138.3976 944,-160 944,-160 944,-160 733.8044,-160 733.8044,-160"/>
<polygon fill="#000000" stroke="#000000" points="733.8044,-156.5001 723.8044,-160 733.8044,-163.5001 733.8044,-156.5001"/>
</g>
<!-- UsersBeherenComponent -->
<g id="node4" class="node">
<title>UsersBeherenComponent</title>
<polygon fill="#ffffb3" stroke="#000000" points="845.8445,-122 686.1555,-122 686.1555,-86 845.8445,-86 845.8445,-122"/>
<text text-anchor="middle" x="766" y="-99.8" font-family="Times,serif" font-size="14.00" fill="#000000">UsersBeherenComponent</text>
</g>
<!-- UsersBeherenComponent&#45;&gt;AppModule -->
<g id="edge4" class="edge">
<title>UsersBeherenComponent&#45;&gt;AppModule</title>
<path fill="none" stroke="#000000" d="M704.953,-122.1061C704.953,-122.1061 704.953,-140.991 704.953,-140.991"/>
<polygon fill="#000000" stroke="#000000" points="701.4531,-140.9909 704.953,-150.991 708.4531,-140.991 701.4531,-140.9909"/>
</g>
<!-- AppComponent  -->
<g id="node9" class="node">
<title>AppComponent </title>
<polygon fill="#80b1d3" stroke="#000000" points="736.439,-252 627.561,-252 627.561,-216 736.439,-216 736.439,-252"/>
<text text-anchor="middle" x="682" y="-229.8" font-family="Times,serif" font-size="14.00" fill="#000000">AppComponent </text>
</g>
<!-- AppModule&#45;&gt;AppComponent  -->
<g id="edge8" class="edge">
<title>AppModule&#45;&gt;AppComponent </title>
<path fill="none" stroke="#000000" stroke-dasharray="1,5" d="M682,-187.1061C682,-187.1061 682,-205.991 682,-205.991"/>
<polygon fill="#000000" stroke="#000000" points="678.5001,-205.9909 682,-215.991 685.5001,-205.991 678.5001,-205.9909"/>
</g>
<!-- AppRoutingModule -->
<g id="node6" class="node">
<title>AppRoutingModule</title>
<polygon fill="#8dd3c7" stroke="#000000" points="662.2744,-122 659.2744,-126 638.2744,-126 635.2744,-122 533.7256,-122 533.7256,-86 662.2744,-86 662.2744,-122"/>
<text text-anchor="middle" x="598" y="-99.8" font-family="Times,serif" font-size="14.00" fill="#000000">AppRoutingModule</text>
</g>
<!-- AppRoutingModule&#45;&gt;AppModule -->
<g id="edge5" class="edge">
<title>AppRoutingModule&#45;&gt;AppModule</title>
<path fill="none" stroke="#000000" d="M651.2795,-122.1061C651.2795,-122.1061 651.2795,-140.991 651.2795,-140.991"/>
<polygon fill="#000000" stroke="#000000" points="647.7795,-140.9909 651.2795,-150.991 654.7795,-140.991 647.7795,-140.9909"/>
</g>
<!-- DashboardModule -->
<g id="node7" class="node">
<title>DashboardModule</title>
<polygon fill="#8dd3c7" stroke="#000000" points="516.191,-122 513.191,-126 492.191,-126 489.191,-122 395.809,-122 395.809,-86 516.191,-86 516.191,-122"/>
<text text-anchor="middle" x="456" y="-99.8" font-family="Times,serif" font-size="14.00" fill="#000000">DashboardModule</text>
</g>
<!-- DashboardModule&#45;&gt;AppModule -->
<g id="edge6" class="edge">
<title>DashboardModule&#45;&gt;AppModule</title>
<path fill="none" stroke="#000000" d="M456,-122.027C456,-138.3976 456,-160 456,-160 456,-160 630.2847,-160 630.2847,-160"/>
<polygon fill="#000000" stroke="#000000" points="630.2848,-163.5001 640.2847,-160 630.2847,-156.5001 630.2848,-163.5001"/>
</g>
<!-- ProcessOverviewModule -->
<g id="node8" class="node">
<title>ProcessOverviewModule</title>
<polygon fill="#8dd3c7" stroke="#000000" points="377.5058,-122 374.5058,-126 353.5058,-126 350.5058,-122 220.4942,-122 220.4942,-86 377.5058,-86 377.5058,-122"/>
<text text-anchor="middle" x="299" y="-99.8" font-family="Times,serif" font-size="14.00" fill="#000000">ProcessOverviewModule</text>
</g>
<!-- ProcessOverviewModule&#45;&gt;AppModule -->
<g id="edge7" class="edge">
<title>ProcessOverviewModule&#45;&gt;AppModule</title>
<path fill="none" stroke="#000000" d="M299,-122.1061C299,-141.3391 299,-169 299,-169 299,-169 630.2832,-169 630.2832,-169"/>
<polygon fill="#000000" stroke="#000000" points="630.2832,-172.5001 640.2832,-169 630.2832,-165.5001 630.2832,-172.5001"/>
</g>
<!-- SecurityInterceptor -->
<g id="node10" class="node">
<title>SecurityInterceptor</title>
<ellipse fill="#fdb462" stroke="#000000" cx="110" cy="-104" rx="85.6493" ry="18"/>
<text text-anchor="middle" x="110" y="-99.8" font-family="Times,serif" font-size="14.00" fill="#000000">SecurityInterceptor</text>
</g>
<!-- SecurityInterceptor&#45;&gt;AppModule -->
<g id="edge9" class="edge">
<title>SecurityInterceptor&#45;&gt;AppModule</title>
<path fill="none" stroke="#000000" d="M110,-122.2921C110,-144.2057 110,-178 110,-178 110,-178 629.9395,-178 629.9395,-178"/>
<polygon fill="#000000" stroke="#000000" points="629.9395,-181.5001 639.9395,-178 629.9394,-174.5001 629.9395,-181.5001"/>
</g>
</g>
</svg>
