<?xml version="1.0" encoding="UTF-8" standalone="no"?>
<!DOCTYPE svg PUBLIC "-//W3C//DTD SVG 1.1//EN"
 "http://www.w3.org/Graphics/SVG/1.1/DTD/svg11.dtd">
<!-- Generated by graphviz version 2.40.1 (20161225.0304)
 -->
<!-- Title: dependencies Pages: 1 -->
<svg width="1405pt" height="211pt"
 viewBox="0.00 0.00 1405.00 211.00" xmlns="http://www.w3.org/2000/svg" xmlns:xlink="http://www.w3.org/1999/xlink">
<g id="graph0" class="graph" transform="scale(1 1) rotate(0) translate(4 207)">
<title>dependencies</title>
<polygon fill="#ffffff" stroke="transparent" points="-4,4 -4,-207 1401,-207 1401,4 -4,4"/>
<text text-anchor="start" x="677.5091" y="-42.4" font-family="sans-serif" font-weight="bold" font-size="14.00" fill="#000000">Legend</text>
<polygon fill="#ffffb3" stroke="transparent" points="464.5,-10 464.5,-30 484.5,-30 484.5,-10 464.5,-10"/>
<text text-anchor="start" x="488.129" y="-15.4" font-family="sans-serif" font-size="14.00" fill="#000000"> &#160;Declarations</text>
<polygon fill="#8dd3c7" stroke="transparent" points="577.5,-10 577.5,-30 597.5,-30 597.5,-10 577.5,-10"/>
<text text-anchor="start" x="601.2251" y="-15.4" font-family="sans-serif" font-size="14.00" fill="#000000"> &#160;Module</text>
<polygon fill="#80b1d3" stroke="transparent" points="663.5,-10 663.5,-30 683.5,-30 683.5,-10 663.5,-10"/>
<text text-anchor="start" x="687.2812" y="-15.4" font-family="sans-serif" font-size="14.00" fill="#000000"> &#160;Bootstrap</text>
<polygon fill="#fdb462" stroke="transparent" points="760.5,-10 760.5,-30 780.5,-30 780.5,-10 760.5,-10"/>
<text text-anchor="start" x="784.1732" y="-15.4" font-family="sans-serif" font-size="14.00" fill="#000000"> &#160;Providers</text>
<polygon fill="#fb8072" stroke="transparent" points="856.5,-10 856.5,-30 876.5,-30 876.5,-10 856.5,-10"/>
<text text-anchor="start" x="880.2258" y="-15.4" font-family="sans-serif" font-size="14.00" fill="#000000"> &#160;Exports</text>
<g id="clust1" class="cluster">
<title>cluster_ProcessOverviewModule</title>
<polygon fill="none" stroke="#000000" stroke-dasharray="1,5" points="8,-70 8,-195 1389,-195 1389,-70 8,-70"/>
</g>
<g id="clust2" class="cluster">
<title>cluster_ProcessOverviewModule_declarations</title>
<polygon fill="none" stroke="#000000" points="160,-78 160,-130 1381,-130 1381,-78 160,-78"/>
</g>
<g id="clust10" class="cluster">
<title>cluster_ProcessOverviewModule_imports</title>
<polygon fill="none" stroke="#000000" points="16,-78 16,-130 152,-130 152,-78 16,-78"/>
</g>
<!-- CardStyle1Component -->
<g id="node1" class="node">
<title>CardStyle1Component</title>
<polygon fill="#ffffb3" stroke="#000000" points="1373.323,-122 1228.677,-122 1228.677,-86 1373.323,-86 1373.323,-122"/>
<text text-anchor="middle" x="1301" y="-99.8" font-family="Times,serif" font-size="14.00" fill="#000000">CardStyle1Component</text>
</g>
<!-- ProcessOverviewModule -->
<g id="node8" class="node">
<title>ProcessOverviewModule</title>
<polygon fill="#8dd3c7" stroke="#000000" points="796.5058,-187 793.5058,-191 772.5058,-191 769.5058,-187 639.4942,-187 639.4942,-151 796.5058,-151 796.5058,-187"/>
<text text-anchor="middle" x="718" y="-164.8" font-family="Times,serif" font-size="14.00" fill="#000000">ProcessOverviewModule</text>
</g>
<!-- CardStyle1Component&#45;&gt;ProcessOverviewModule -->
<g id="edge1" class="edge">
<title>CardStyle1Component&#45;&gt;ProcessOverviewModule</title>
<path fill="none" stroke="#000000" d="M1301,-122.2921C1301,-144.2057 1301,-178 1301,-178 1301,-178 806.626,-178 806.626,-178"/>
<polygon fill="#000000" stroke="#000000" points="806.626,-174.5001 796.626,-178 806.6259,-181.5001 806.626,-174.5001"/>
</g>
<!-- CardStyle2Component -->
<g id="node2" class="node">
<title>CardStyle2Component</title>
<polygon fill="#ffffb3" stroke="#000000" points="1211.323,-122 1066.677,-122 1066.677,-86 1211.323,-86 1211.323,-122"/>
<text text-anchor="middle" x="1139" y="-99.8" font-family="Times,serif" font-size="14.00" fill="#000000">CardStyle2Component</text>
</g>
<!-- CardStyle2Component&#45;&gt;ProcessOverviewModule -->
<g id="edge2" class="edge">
<title>CardStyle2Component&#45;&gt;ProcessOverviewModule</title>
<path fill="none" stroke="#000000" d="M1139,-122.1061C1139,-141.3391 1139,-169 1139,-169 1139,-169 806.693,-169 806.693,-169"/>
<polygon fill="#000000" stroke="#000000" points="806.693,-165.5001 796.693,-169 806.693,-172.5001 806.693,-165.5001"/>
</g>
<!-- CardTemplateBaseComponent -->
<g id="node3" class="node">
<title>CardTemplateBaseComponent</title>
<polygon fill="#ffffb3" stroke="#000000" points="1049.1232,-122 860.8768,-122 860.8768,-86 1049.1232,-86 1049.1232,-122"/>
<text text-anchor="middle" x="955" y="-99.8" font-family="Times,serif" font-size="14.00" fill="#000000">CardTemplateBaseComponent</text>
</g>
<!-- CardTemplateBaseComponent&#45;&gt;ProcessOverviewModule -->
<g id="edge3" class="edge">
<title>CardTemplateBaseComponent&#45;&gt;ProcessOverviewModule</title>
<path fill="none" stroke="#000000" d="M955,-122.027C955,-138.3976 955,-160 955,-160 955,-160 806.5884,-160 806.5884,-160"/>
<polygon fill="#000000" stroke="#000000" points="806.5884,-156.5001 796.5884,-160 806.5883,-163.5001 806.5884,-156.5001"/>
</g>
<!-- CardsDirective -->
<g id="node4" class="node">
<title>CardsDirective</title>
<polygon fill="#ffffb3" stroke="#000000" points="842.2395,-122 741.7605,-122 741.7605,-86 842.2395,-86 842.2395,-122"/>
<text text-anchor="middle" x="792" y="-99.8" font-family="Times,serif" font-size="14.00" fill="#000000">CardsDirective</text>
</g>
<!-- CardsDirective&#45;&gt;ProcessOverviewModule -->
<g id="edge4" class="edge">
<title>CardsDirective&#45;&gt;ProcessOverviewModule</title>
<path fill="none" stroke="#000000" d="M769.1915,-122.1061C769.1915,-122.1061 769.1915,-140.991 769.1915,-140.991"/>
<polygon fill="#000000" stroke="#000000" points="765.6915,-140.9909 769.1915,-150.991 772.6915,-140.991 765.6915,-140.9909"/>
</g>
<!-- ProcessCardsComponent -->
<g id="node5" class="node">
<title>ProcessCardsComponent</title>
<polygon fill="#ffffb3" stroke="#000000" points="723.2506,-122 566.7494,-122 566.7494,-86 723.2506,-86 723.2506,-122"/>
<text text-anchor="middle" x="645" y="-99.8" font-family="Times,serif" font-size="14.00" fill="#000000">ProcessCardsComponent</text>
</g>
<!-- ProcessCardsComponent&#45;&gt;ProcessOverviewModule -->
<g id="edge5" class="edge">
<title>ProcessCardsComponent&#45;&gt;ProcessOverviewModule</title>
<path fill="none" stroke="#000000" d="M681.3113,-122.1061C681.3113,-122.1061 681.3113,-140.991 681.3113,-140.991"/>
<polygon fill="#000000" stroke="#000000" points="677.8114,-140.9909 681.3113,-150.991 684.8114,-140.991 677.8114,-140.9909"/>
</g>
<!-- ProcessCardsItemComponent -->
<g id="node6" class="node">
<title>ProcessCardsItemComponent</title>
<polygon fill="#ffffb3" stroke="#000000" points="548.4073,-122 365.5927,-122 365.5927,-86 548.4073,-86 548.4073,-122"/>
<text text-anchor="middle" x="457" y="-99.8" font-family="Times,serif" font-size="14.00" fill="#000000">ProcessCardsItemComponent</text>
</g>
<!-- ProcessCardsItemComponent&#45;&gt;ProcessOverviewModule -->
<g id="edge6" class="edge">
<title>ProcessCardsItemComponent&#45;&gt;ProcessOverviewModule</title>
<path fill="none" stroke="#000000" d="M457,-122.027C457,-138.3976 457,-160 457,-160 457,-160 629.3375,-160 629.3375,-160"/>
<polygon fill="#000000" stroke="#000000" points="629.3375,-163.5001 639.3375,-160 629.3374,-156.5001 629.3375,-163.5001"/>
</g>
<!-- ProcessOverviewComponent -->
<g id="node7" class="node">
<title>ProcessOverviewComponent</title>
<polygon fill="#ffffb3" stroke="#000000" points="347.7878,-122 168.2122,-122 168.2122,-86 347.7878,-86 347.7878,-122"/>
<text text-anchor="middle" x="258" y="-99.8" font-family="Times,serif" font-size="14.00" fill="#000000">ProcessOverviewComponent</text>
</g>
<!-- ProcessOverviewComponent&#45;&gt;ProcessOverviewModule -->
<g id="edge7" class="edge">
<title>ProcessOverviewComponent&#45;&gt;ProcessOverviewModule</title>
<path fill="none" stroke="#000000" d="M258,-122.1061C258,-141.3391 258,-169 258,-169 258,-169 629.4459,-169 629.4459,-169"/>
<polygon fill="#000000" stroke="#000000" points="629.4459,-172.5001 639.4459,-169 629.4458,-165.5001 629.4459,-172.5001"/>
</g>
<!-- DashboardModule -->
<g id="node9" class="node">
<title>DashboardModule</title>
<polygon fill="#8dd3c7" stroke="#000000" points="144.191,-122 141.191,-126 120.191,-126 117.191,-122 23.809,-122 23.809,-86 144.191,-86 144.191,-122"/>
<text text-anchor="middle" x="84" y="-99.8" font-family="Times,serif" font-size="14.00" fill="#000000">DashboardModule</text>
</g>
<!-- DashboardModule&#45;&gt;ProcessOverviewModule -->
<g id="edge8" class="edge">
<title>DashboardModule&#45;&gt;ProcessOverviewModule</title>
<path fill="none" stroke="#000000" d="M84,-122.2921C84,-144.2057 84,-178 84,-178 84,-178 629.3046,-178 629.3046,-178"/>
<polygon fill="#000000" stroke="#000000" points="629.3046,-181.5001 639.3046,-178 629.3045,-174.5001 629.3046,-181.5001"/>
</g>
</g>
</svg>
