<?xml version="1.0" encoding="UTF-8" standalone="no"?>
<!DOCTYPE svg PUBLIC "-//W3C//DTD SVG 1.1//EN"
 "http://www.w3.org/Graphics/SVG/1.1/DTD/svg11.dtd">
<!-- Generated by graphviz version 2.40.1 (20161225.0304)
 -->
<!-- Title: dependencies Pages: 1 -->
<svg width="1535pt" height="284pt"
 viewBox="0.00 0.00 1535.00 284.00" xmlns="http://www.w3.org/2000/svg" xmlns:xlink="http://www.w3.org/1999/xlink">
<g id="graph0" class="graph" transform="scale(1 1) rotate(0) translate(4 280)">
<title>dependencies</title>
<polygon fill="#ffffff" stroke="transparent" points="-4,4 -4,-280 1531,-280 1531,4 -4,4"/>
<text text-anchor="start" x="742.5091" y="-42.4" font-family="sans-serif" font-weight="bold" font-size="14.00" fill="#000000">Legend</text>
<polygon fill="#ffffb3" stroke="transparent" points="529.5,-10 529.5,-30 549.5,-30 549.5,-10 529.5,-10"/>
<text text-anchor="start" x="553.129" y="-15.4" font-family="sans-serif" font-size="14.00" fill="#000000"> &#160;Declarations</text>
<polygon fill="#8dd3c7" stroke="transparent" points="642.5,-10 642.5,-30 662.5,-30 662.5,-10 642.5,-10"/>
<text text-anchor="start" x="666.2251" y="-15.4" font-family="sans-serif" font-size="14.00" fill="#000000"> &#160;Module</text>
<polygon fill="#80b1d3" stroke="transparent" points="728.5,-10 728.5,-30 748.5,-30 748.5,-10 728.5,-10"/>
<text text-anchor="start" x="752.2812" y="-15.4" font-family="sans-serif" font-size="14.00" fill="#000000"> &#160;Bootstrap</text>
<polygon fill="#fdb462" stroke="transparent" points="825.5,-10 825.5,-30 845.5,-30 845.5,-10 825.5,-10"/>
<text text-anchor="start" x="849.1732" y="-15.4" font-family="sans-serif" font-size="14.00" fill="#000000"> &#160;Providers</text>
<polygon fill="#fb8072" stroke="transparent" points="921.5,-10 921.5,-30 941.5,-30 941.5,-10 921.5,-10"/>
<text text-anchor="start" x="945.2258" y="-15.4" font-family="sans-serif" font-size="14.00" fill="#000000"> &#160;Exports</text>
<g id="clust1" class="cluster">
<title>cluster_DashboardModule</title>
<polygon fill="none" stroke="#000000" stroke-dasharray="1,5" points="8,-70 8,-268 1519,-268 1519,-70 8,-70"/>
</g>
<g id="clust2" class="cluster">
<title>cluster_DashboardModule_declarations</title>
<polygon fill="none" stroke="#000000" points="16,-78 16,-130 1511,-130 1511,-78 16,-78"/>
</g>
<g id="clust13" class="cluster">
<title>cluster_DashboardModule_exports</title>
<polygon fill="none" stroke="#000000" points="698,-208 698,-260 947,-260 947,-208 698,-208"/>
</g>
<!-- ActionsComponent -->
<g id="node1" class="node">
<title>ActionsComponent</title>
<polygon fill="#ffffb3" stroke="#000000" points="1503.3795,-122 1378.6205,-122 1378.6205,-86 1503.3795,-86 1503.3795,-122"/>
<text text-anchor="middle" x="1441" y="-99.8" font-family="Times,serif" font-size="14.00" fill="#000000">ActionsComponent</text>
</g>
<!-- DashboardModule -->
<g id="node10" class="node">
<title>DashboardModule</title>
<polygon fill="#8dd3c7" stroke="#000000" points="864.191,-187 861.191,-191 840.191,-191 837.191,-187 743.809,-187 743.809,-151 864.191,-151 864.191,-187"/>
<text text-anchor="middle" x="804" y="-164.8" font-family="Times,serif" font-size="14.00" fill="#000000">DashboardModule</text>
</g>
<!-- ActionsComponent&#45;&gt;DashboardModule -->
<g id="edge1" class="edge">
<title>ActionsComponent&#45;&gt;DashboardModule</title>
<path fill="none" stroke="#000000" d="M1441,-122.0109C1441,-144.4852 1441,-180 1441,-180 1441,-180 874.2143,-180 874.2143,-180"/>
<polygon fill="#000000" stroke="#000000" points="874.2143,-176.5001 864.2143,-180 874.2142,-183.5001 874.2143,-176.5001"/>
</g>
<!-- DashboardComponent -->
<g id="node2" class="node">
<title>DashboardComponent</title>
<polygon fill="#ffffb3" stroke="#000000" points="1360.9734,-122 1219.0266,-122 1219.0266,-86 1360.9734,-86 1360.9734,-122"/>
<text text-anchor="middle" x="1290" y="-99.8" font-family="Times,serif" font-size="14.00" fill="#000000">DashboardComponent</text>
</g>
<!-- DashboardComponent&#45;&gt;DashboardModule -->
<g id="edge2" class="edge">
<title>DashboardComponent&#45;&gt;DashboardModule</title>
<path fill="none" stroke="#000000" d="M1290,-122.1289C1290,-142.5724 1290,-173 1290,-173 1290,-173 874.5696,-173 874.5696,-173"/>
<polygon fill="#000000" stroke="#000000" points="874.5696,-169.5001 864.5696,-173 874.5695,-176.5001 874.5696,-169.5001"/>
</g>
<!-- InfoComponent -->
<g id="node3" class="node">
<title>InfoComponent</title>
<polygon fill="#ffffb3" stroke="#000000" points="1201.1542,-122 1096.8458,-122 1096.8458,-86 1201.1542,-86 1201.1542,-122"/>
<text text-anchor="middle" x="1149" y="-99.8" font-family="Times,serif" font-size="14.00" fill="#000000">InfoComponent</text>
</g>
<!-- InfoComponent&#45;&gt;DashboardModule -->
<g id="edge3" class="edge">
<title>InfoComponent&#45;&gt;DashboardModule</title>
<path fill="none" stroke="#000000" d="M1149,-122.2667C1149,-140.5552 1149,-166 1149,-166 1149,-166 874.4892,-166 874.4892,-166"/>
<polygon fill="#000000" stroke="#000000" points="874.4892,-162.5001 864.4892,-166 874.4892,-169.5001 874.4892,-162.5001"/>
</g>
<!-- MeasurementsComponent -->
<g id="node4" class="node">
<title>MeasurementsComponent</title>
<polygon fill="#ffffb3" stroke="#000000" points="1078.4664,-122 915.5336,-122 915.5336,-86 1078.4664,-86 1078.4664,-122"/>
<text text-anchor="middle" x="997" y="-99.8" font-family="Times,serif" font-size="14.00" fill="#000000">MeasurementsComponent</text>
</g>
<!-- MeasurementsComponent&#45;&gt;DashboardModule -->
<g id="edge4" class="edge">
<title>MeasurementsComponent&#45;&gt;DashboardModule</title>
<path fill="none" stroke="#000000" d="M927.1268,-122.0091C927.1268,-138.0494 927.1268,-159 927.1268,-159 927.1268,-159 874.1206,-159 874.1206,-159"/>
<polygon fill="#000000" stroke="#000000" points="874.1206,-155.5001 864.1206,-159 874.1206,-162.5001 874.1206,-155.5001"/>
</g>
<!-- ModalAddActivityComponent -->
<g id="node5" class="node">
<title>ModalAddActivityComponent</title>
<polygon fill="#ffffb3" stroke="#000000" points="897.8724,-122 710.1276,-122 710.1276,-86 897.8724,-86 897.8724,-122"/>
<text text-anchor="middle" x="804" y="-99.8" font-family="Times,serif" font-size="14.00" fill="#000000">ModalAddActivityComponent</text>
</g>
<!-- ModalAddActivityComponent&#45;&gt;DashboardModule -->
<g id="edge5" class="edge">
<title>ModalAddActivityComponent&#45;&gt;DashboardModule</title>
<path fill="none" stroke="#000000" d="M804,-122.1061C804,-122.1061 804,-140.991 804,-140.991"/>
<polygon fill="#000000" stroke="#000000" points="800.5001,-140.9909 804,-150.991 807.5001,-140.991 800.5001,-140.9909"/>
</g>
<!-- ModalAddMeasurementComponent -->
<g id="node6" class="node">
<title>ModalAddMeasurementComponent</title>
<polygon fill="#ffffb3" stroke="#000000" points="692.1783,-122 473.8217,-122 473.8217,-86 692.1783,-86 692.1783,-122"/>
<text text-anchor="middle" x="583" y="-99.8" font-family="Times,serif" font-size="14.00" fill="#000000">ModalAddMeasurementComponent</text>
</g>
<!-- ModalAddMeasurementComponent&#45;&gt;DashboardModule -->
<g id="edge6" class="edge">
<title>ModalAddMeasurementComponent&#45;&gt;DashboardModule</title>
<path fill="none" stroke="#000000" d="M583,-122.0091C583,-138.0494 583,-159 583,-159 583,-159 733.9027,-159 733.9027,-159"/>
<polygon fill="#000000" stroke="#000000" points="733.9027,-162.5001 743.9027,-159 733.9027,-155.5001 733.9027,-162.5001"/>
</g>
<!-- ModalStopProcessComponent -->
<g id="node7" class="node">
<title>ModalStopProcessComponent</title>
<polygon fill="#ffffb3" stroke="#000000" points="456.3173,-122 269.6827,-122 269.6827,-86 456.3173,-86 456.3173,-122"/>
<text text-anchor="middle" x="363" y="-99.8" font-family="Times,serif" font-size="14.00" fill="#000000">ModalStopProcessComponent</text>
</g>
<!-- ModalStopProcessComponent&#45;&gt;DashboardModule -->
<g id="edge7" class="edge">
<title>ModalStopProcessComponent&#45;&gt;DashboardModule</title>
<path fill="none" stroke="#000000" d="M363,-122.2667C363,-140.5552 363,-166 363,-166 363,-166 733.6055,-166 733.6055,-166"/>
<polygon fill="#000000" stroke="#000000" points="733.6055,-169.5001 743.6055,-166 733.6055,-162.5001 733.6055,-169.5001"/>
</g>
<!-- NavigationComponent -->
<g id="node8" class="node">
<title>NavigationComponent</title>
<polygon fill="#ffffb3" stroke="#000000" points="251.5407,-122 108.4593,-122 108.4593,-86 251.5407,-86 251.5407,-122"/>
<text text-anchor="middle" x="180" y="-99.8" font-family="Times,serif" font-size="14.00" fill="#000000">NavigationComponent</text>
</g>
<!-- NavigationComponent&#45;&gt;DashboardModule -->
<g id="edge8" class="edge">
<title>NavigationComponent&#45;&gt;DashboardModule</title>
<path fill="none" stroke="#000000" d="M180,-122.1289C180,-142.5724 180,-173 180,-173 180,-173 733.885,-173 733.885,-173"/>
<polygon fill="#000000" stroke="#000000" points="733.8851,-176.5001 743.885,-173 733.885,-169.5001 733.8851,-176.5001"/>
</g>
<!-- SafePipe -->
<g id="node9" class="node">
<title>SafePipe</title>
<polygon fill="#ffffb3" stroke="#000000" points="89.7606,-122 24.2394,-122 24.2394,-86 89.7606,-86 89.7606,-122"/>
<text text-anchor="middle" x="57" y="-99.8" font-family="Times,serif" font-size="14.00" fill="#000000">SafePipe</text>
</g>
<!-- SafePipe&#45;&gt;DashboardModule -->
<g id="edge9" class="edge">
<title>SafePipe&#45;&gt;DashboardModule</title>
<path fill="none" stroke="#000000" d="M57,-122.0109C57,-144.4852 57,-180 57,-180 57,-180 733.8179,-180 733.8179,-180"/>
<polygon fill="#000000" stroke="#000000" points="733.818,-183.5001 743.8179,-180 733.8179,-176.5001 733.818,-183.5001"/>
</g>
<!-- DashboardComponent  -->
<g id="node11" class="node">
<title>DashboardComponent </title>
<polygon fill="#fb8072" stroke="#000000" points="938.9742,-252 793.0258,-252 793.0258,-216 938.9742,-216 938.9742,-252"/>
<text text-anchor="middle" x="866" y="-229.8" font-family="Times,serif" font-size="14.00" fill="#000000">DashboardComponent </text>
</g>
<!-- DashboardModule&#45;&gt;DashboardComponent  -->
<g id="edge10" class="edge">
<title>DashboardModule&#45;&gt;DashboardComponent </title>
<path fill="none" stroke="#000000" stroke-dasharray="5,2" d="M828.6794,-187.1061C828.6794,-187.1061 828.6794,-205.991 828.6794,-205.991"/>
<polygon fill="#000000" stroke="#000000" points="825.1794,-205.9909 828.6794,-215.991 832.1794,-205.991 825.1794,-205.9909"/>
</g>
<!-- SafePipe  -->
<g id="node12" class="node">
<title>SafePipe </title>
<polygon fill="#fb8072" stroke="#000000" points="775.7607,-252 706.2393,-252 706.2393,-216 775.7607,-216 775.7607,-252"/>
<text text-anchor="middle" x="741" y="-229.8" font-family="Times,serif" font-size="14.00" fill="#000000">SafePipe </text>
</g>
<!-- DashboardModule&#45;&gt;SafePipe  -->
<g id="edge11" class="edge">
<title>DashboardModule&#45;&gt;SafePipe </title>
<path fill="none" stroke="#000000" stroke-dasharray="5,2" d="M759.7674,-187.1061C759.7674,-187.1061 759.7674,-205.991 759.7674,-205.991"/>
<polygon fill="#000000" stroke="#000000" points="756.2674,-205.9909 759.7674,-215.991 763.2674,-205.991 756.2674,-205.9909"/>
</g>
</g>
</svg>
